<svg xmlns="http://www.w3.org/2000/svg" version="1.1" xmlns:xlink="http://www.w3.org/1999/xlink" xmlns:svgjs="http://svgjs.dev/svgjs" width="1000" height="217" viewBox="0 0 1000 217"><g transform="matrix(1,0,0,1,-0.6060592577134685,0.5528381258942403)"><svg viewBox="0 0 396 86" data-background-color="#003366" preserveAspectRatio="xMidYMid meet" height="217" width="1000" xmlns="http://www.w3.org/2000/svg" xmlns:xlink="http://www.w3.org/1999/xlink"><g id="tight-bounds" transform="matrix(1,0,0,1,0.2399994660545417,-0.21909713745117188)"><svg viewBox="0 0 395.52 86.43819189610475" height="86.43819189610475" width="395.52"><g><svg viewBox="0 0 521.6803708728323 114.00967841306883" height="86.43819189610475" width="395.52"><g transform="matrix(1,0,0,1,126.16037087283229,15.75676452742124)"><svg viewBox="0 0 395.52 82.49614935822635" height="82.49614935822635" width="395.52"><g id="textblocktransform"><svg viewBox="0 0 395.52 82.49614935822635" height="82.49614935822635" width="395.52" id="textblock"><g><svg viewBox="0 0 395.52 82.49614935822635" height="82.49614935822635" width="395.52"><g transform="matrix(1,0,0,1,0,0)"><svg width="395.52" viewBox="0 -35.75 171.38999938964844 35.75" height="82.49614935822635" data-palette-color="#ffffff"><path d="M34.95-34.95L21.05-19.5 33.4-2.15 37.55-2.15 37.55 0 25.85 0 15.6-13.8 12.1-9.9 12.1 0 0 0 0-2.15 4.3-2.15 4.3-34.95 12.1-34.95 12.1-20.6 25.3-34.95 34.95-34.95ZM47.6-2.15L51.9-2.15 51.9 0 35.5 0 35.5-2.15 39.8-2.15 39.8-34.95 47.6-34.95 47.6-2.15ZM79.2-2.15L91-2.15 91 0 51.35 0 51.35-2.15 56.2-2.15 56.2-34.95 68.55-34.95Q77.9-34.95 82.9-30.38 87.9-25.8 87.9-17.5L87.9-17.5Q87.9-6.3 79.2-2.15L79.2-2.15ZM68.95-6.9Q74.3-6.9 77.17-9.6 80.05-12.3 80.05-17.45 80.05-22.6 77.17-25.38 74.3-28.15 68.35-28.15L68.35-28.15 64-28.15 64-6.9 68.95-6.9ZM118.29-2.15L130.09-2.15 130.09 0 90.44 0 90.44-2.15 95.29-2.15 95.29-34.95 107.64-34.95Q116.99-34.95 121.99-30.38 126.99-25.8 126.99-17.5L126.99-17.5Q126.99-6.3 118.29-2.15L118.29-2.15ZM108.04-6.9Q113.39-6.9 116.27-9.6 119.14-12.3 119.14-17.45 119.14-22.6 116.27-25.38 113.39-28.15 107.44-28.15L107.44-28.15 103.09-28.15 103.09-6.9 108.04-6.9ZM160.24-2.15L171.39-2.15 171.39 0 130.09 0 130.09-2.15 141.24-2.15Q137.14-4.5 134.77-8.6 132.39-12.7 132.39-17.7L132.39-17.7Q132.39-25.4 137.69-30.58 142.99-35.75 150.74-35.75 158.49-35.75 163.79-30.58 169.09-25.4 169.09-17.7L169.09-17.7Q169.09-12.7 166.69-8.6 164.29-4.5 160.24-2.15L160.24-2.15ZM161.14-17.68Q161.14-22.35 158.14-25.65 155.14-28.95 150.77-28.95 146.39-28.95 143.39-25.65 140.39-22.35 140.39-17.68 140.39-13 143.39-9.73 146.39-6.45 150.77-6.45 155.14-6.45 158.14-9.73 161.14-13 161.14-17.68Z" opacity="1" transform="matrix(1,0,0,1,0,0)" fill="#ffffff" class="wordmark-text-0" data-fill-palette-color="primary" id="text-0"></path></svg></g></svg></g></svg></g></svg></g><g><svg viewBox="0 0 106.68500991693965 114.00967841306883" height="114.00967841306883" width="106.68500991693965"><g><svg xmlns="http://www.w3.org/2000/svg" xmlns:xlink="http://www.w3.org/1999/xlink" version="1.1" x="0" y="0" viewBox="14.100000381469727 11.674999237060547 71.7021484375 76.625" style="enable-background:new 0 0 100 100;" xml:space="preserve" height="114.00967841306883" width="106.68500991693965" class="icon-icon-0" data-fill-palette-color="accent" id="icon-0"></svg></g></svg></g></svg></g><defs></defs><mask id="84a507be-d142-42d2-b62b-b5216f9e14cb"><g id="SvgjsG1043"><svg viewBox="0 0 395.52 86.43819189610475" height="86.43819189610475" width="395.52"><g><svg viewBox="0 0 521.6803708728323 114.00967841306883" height="86.43819189610475" width="395.52"><g transform="matrix(1,0,0,1,126.16037087283229,15.75676452742124)"><svg viewBox="0 0 395.52 82.49614935822635" height="82.49614935822635" width="395.52"><g id="SvgjsG1042"><svg viewBox="0 0 395.52 82.49614935822635" height="82.49614935822635" width="395.52" id="SvgjsSvg1041"><g><svg viewBox="0 0 395.52 82.49614935822635" height="82.49614935822635" width="395.52"><g transform="matrix(1,0,0,1,0,0)"><svg width="395.52" viewBox="0 -35.75 171.38999938964844 35.75" height="82.49614935822635" data-palette-color="#ffffff"></svg></g></svg></g></svg></g></svg></g><g><svg viewBox="0 0 106.68500991693965 114.00967841306883" height="114.00967841306883" width="106.68500991693965"><g><svg xmlns="http://www.w3.org/2000/svg" xmlns:xlink="http://www.w3.org/1999/xlink" version="1.1" x="0" y="0" viewBox="14.100000381469727 11.674999237060547 71.7021484375 76.625" style="enable-background:new 0 0 100 100;" xml:space="preserve" height="114.00967841306883" width="106.68500991693965" class="icon-icon-0" data-fill-palette-color="accent" id="SvgjsSvg1039"><g fill="white"><g fill="white"><g fill="white"><path d="M78.3 82.7H21.7c-4.2 0-7.6-3.4-7.6-7.6V37.2c0-4.2 3.4-7.6 7.6-7.6h56.5c4.2 0 7.6 3.4 7.6 7.6v37.9C85.9 79.3 82.5 82.7 78.3 82.7zM21.7 35c-1.2 0-2.2 1-2.2 2.2v37.9c0 1.2 1 2.2 2.2 2.2h56.5c1.2 0 2.2-1 2.2-2.2V37.2c0-1.2-1-2.2-2.2-2.2H21.7z" fill="white"></path></g><g fill="white"><g fill="white"><path d="M27 88.3c-0.7 0-1.4-0.3-1.9-0.8-1.1-1.1-1.1-2.8 0-3.8l5.6-5.6c1.1-1.1 2.8-1.1 3.8 0 1.1 1.1 1.1 2.8 0 3.8l-5.6 5.6C28.4 88 27.7 88.3 27 88.3z" fill="white"></path></g><g fill="white"><path d="M73 88.3c-0.7 0-1.4-0.3-1.9-0.8l-5.6-5.6c-1.1-1.1-1.1-2.8 0-3.8 1.1-1.1 2.8-1.1 3.8 0l5.6 5.6c1.1 1.1 1.1 2.8 0 3.8C74.4 88 73.7 88.3 73 88.3z" fill="white"></path></g></g><g fill="white"><g fill="white"><path d="M50.7 32.6c-0.7 0-1.4-0.3-1.9-0.8-1.1-1.1-1.1-2.8 0-3.8l15.5-15.5c1.1-1.1 2.8-1.1 3.8 0s1.1 2.8 0 3.8L52.6 31.8C52.1 32.4 51.4 32.6 50.7 32.6z" fill="white"></path></g><g fill="white"><path d="M48 32.6c-0.7 0-1.4-0.3-1.9-0.8l-5.6-5.6c-1.1-1.1-1.1-2.8 0-3.8s2.8-1.1 3.8 0l5.6 5.6c1.1 1.1 1.1 2.8 0 3.8C49.3 32.4 48.6 32.6 48 32.6z" fill="white"></path></g></g><g fill="white"><path d="M58.5 74.2h-17c-1.5 0-2.7-1.2-2.7-2.7s1.2-2.7 2.7-2.7h17c1.5 0 2.7 1.2 2.7 2.7S60 74.2 58.5 74.2z" fill="white"></path></g><g fill="white"><path d="M27 74.2c-0.7 0-1.4-0.3-1.9-0.8-0.5-0.5-0.8-1.2-0.8-1.9 0-0.7 0.3-1.4 0.8-1.9 1-1 2.8-1 3.8 0 0.5 0.5 0.8 1.2 0.8 1.9 0 0.7-0.3 1.4-0.8 1.9C28.4 73.9 27.7 74.2 27 74.2z" fill="white"></path></g></g></g></svg></g></svg></g></svg></g><defs><mask></mask></defs></svg></g></mask><linearGradient x1="0" x2="1" y1="0.578" y2="0.595" id="f7dfeaaf-2f15-4084-82ef-63d38a6d1d7d"><stop stop-color="#6ee2f5" offset="0"></stop><stop stop-color="#6454f0" offset="1"></stop></linearGradient><rect width="395.5199890136719" height="86.43819427490234" fill="url(#f7dfeaaf-2f15-4084-82ef-63d38a6d1d7d)" mask="url(#84a507be-d142-42d2-b62b-b5216f9e14cb)" data-fill-palette-color="accent"></rect></svg><rect width="395.52" height="86.43819189610475" fill="none" stroke="none" visibility="hidden"></rect></g></svg></g></svg>